<?xml version="1.0" encoding="UTF-8"?><svg id="Layer_2" xmlns="http://www.w3.org/2000/svg" viewBox="0 0 496.72 171.88"><defs><style>.cls-1{fill: rgb(50, 48, 48);}</style></defs><g id="Layer_1-2"><path class="cls-1" d="M427.52,138.9c.94-1.27,2.08-2.57,3.04-3.91,1.19-1.65,2.45-3.67,3.43-5.46.6-.08.24.65.18.98-.87,4.51-11.23,19.84-14.36,24.44-.21.31-.34.71-.37,1.08l-.64-4.33c.34-1.05,1.06-1.83,1.61-2.78,2.43-1.98,5.3-7.28,7.11-10.02Z"/><path class="cls-1" d="M426.22,130.18c.71-.74,1.68-1.44,2.43-2.26,2.46-2.65,4.43-5.81,7.27-8.09l-.17,1.6-8.55,10.2.16.48,8.57-10.02-.29,2.13-8.75,11.29.16.48,8.57-10.67c-.15.82-.47,1.82-.84,2.56-1.55,3.09-5.17,7.89-7.25,11.02-2.44,3.29-5.04,6.46-7.11,10.02-1.43,1.16-1.7,1.11-3.56.64l3.23-4.85c-.39-.43-3.37,4.31-3.62,4.45-.33.19-1.85.11-2.36.07-.48-.04-.93.25-.8-.48l12.28-14.71c-3.34,3.06-5.92,6.93-8.88,10.35-.76.87-2.95,3.61-3.72,4.04-.23.13-.33.23-.65.15l-.03-1.6-.94-.18c2.37-2.49,5.04-5.01,7.28-7.59,1.08-1.25,2.08-2.67,3.07-3.88,1.69-1.75,3.04-3.36,4.53-5.17Z"/><path class="cls-1" d="M421.7,135.35c1.57-1.94,2.75-3.32,4.53-5.17-1.49,1.81-2.84,3.42-4.53,5.17Z"/><path class="cls-1" d="M420.4,148.93c2.07-3.56,4.68-6.73,7.11-10.02-1.82,2.75-4.69,8.04-7.11,10.02Z"/><path class="cls-1" d="M0,110.46h5.82s0,3.88,0,3.88h2.27s0,2.58,0,2.58h10.03v32.97h3.88v-10.51c1.22-1.01,3.32-.27,4.85-.48v-36.53h1.62s.36-3.35.36-3.35c.98-.77,6.08-7.64,6.59-7.64h5.34c.04-1.57.33-3.12.47-4.69.2-2.24.58-3.52.84-5.48.31-2.24-.31-5.17-.02-7.46.06-.47.25-1,.65-.48.14,2.15-.19,4.5,0,6.62.12,1.32.82,2.58.95,3.58.32,2.53.13,5.36.81,7.92.44.66,3.26.13,4.22.31,1.34.25,5.49,6.41,7.12,7.43l.16,3.55h1.3s0,2.26,0,2.26h10.51l.49.48v31.52h3.88v-30.71l2.28-.14c.33-.23.28-.63.32-.97.72-5.92-.11-14.44-.03-20.72.01-.84.34-1.63.35-2.56.2-17.94-.18-35.9-.02-53.84l7.9-1.25.2-1.31c1.22.03,2.56-.64,3.72-.68s2.71.67,3.81.28c.45-.16,1.5-1.99,3.09-1.6l.36-10.64c.21-.02.64.43.64.48v9.7l.54.43,3.2.29.47-.41v-5.01h.65v4.69c0,.12.43.49.32.81l.97-.33.53,1.26,7.24.04v121.23h1.29v-6.14c.79-.02,1.74.24,2.26-.48v-19.24h2.59s0-2.91,0-2.91c.15-.15,2.69.15,3.34,0,.26-.06.09-.59.69-.66,1.61-.21,3.68.21,5.36.02v1.94s4.53,0,4.53,0v19.4h2.91V40.79c.65-.92,3.52-.39,3.84-1.34l.04-2.38c-.77-.03-1.41.65-1.94-.16l.67-.62c-.05-2.25.22-4.22-.68-6.33l3.87-.67.05-1.26c1.22.12.99-.27.94-1.31l.32,1.29,1.75-.29.19-1.65.85.49-.2.8c.8.26,1.82-.33,2.45-.3s.78.75,1.43.62c.17-.2-.13-3.93-.02-4.71.08-.62.66-.43.69-.67.06-.47-.38-1.23-.37-1.9.05-4.34.87-8.27,1.02-12.59.09-2.53-.09-5.08-.01-7.61.4-.53.59,0,.65.48.48,3.75-.52,8.62-.03,12.31.08.61.63.41.66.66.18,1.68-.26,4.25-.22,6.09.06,2.52.5,5.03.23,7.61l7.23.36.55,1.55,4.5.35c-.66,2.27-1.21,4.89-.68,7.25l-1.57.52.13,2.27,3.42.3-.33,90.2c.99-.2,4.47.5,4.81-.53l.02-34.24c1.36-1.07.26-2.82.72-4.14.24-.7.62-.51,1.06-2.48.25-1.14.8-2.07.55-3.5.3-.22.99-.17,1.19-.43s.72-3.72,1.2-4.78c.83-1.85,2.23-3.43,4.03-4.38.45-.24,1.54-.44,1.6-.5.13-.16.04-3.05,1.17-3.51,1.37.68.85,2.48,1.29,3.23.14.24,2.1,1.02,2.73,1.48,2.37,1.71,3.64,5.04,3.92,7.88h1.28s.37,5.62.37,5.62l1.27.73c.09.99-.21,2.25-.01,3.19.12.58.64.92.64.98v44.45h1.62s.03,1.58.03,1.58l4.49.36.14-4.22,3.09-.3v-4.85h1.29v-14.06l.97-.16v-3.23s4.85,0,4.85,0v-3.56h15.2l-.19,3.57,3.42.31v2.27s2.59,0,2.59,0v10.02c2.05.04,3.78-.67,5.82,0-.15-3.26,1.07-7.59,3.9-9.51.67-.45,2.76-1.07,2.85-1.19.22-.33-.19-2.7.58-2.88h3.66c-.45,3.32,2.82,3.4,4.53,5.67.38.5,2.26,4.58,2.26,4.85v13.42c3.14-.22,5.04-.18,4.53,3.56h.97s0-1.3,0-1.3h3.88s-.29-15.64-.29-15.64c.22-2.75.67-6.73.32-9.43-.08-.58-1-.36-.69-1.91l.95-.19c.43-.43-.5-6.17,1.67-5.98-.31-5,.63-10.18-.67-15.01h1.3c-.03-1.21-.4-4.41-.07-5.35.19-.56.73-.58,1.07-1.24,1.42-2.81,2.05-8.92,3.13-12.4.23-.74-.37-1.95.72-1.7-.41,1.44.62,2.36.89,3.48.62,2.56,1.18,8.83,2.35,10.82.22.38.81.4.93.78.2.62-.33,1.32-.31,1.91.05,1.16.57,2.29.32,3.53l1.01.34-.34,15.35,1.14-.02.45,5.33c1.65.2,1.19,1.31.32,2.26l-.3,25.08h2.27v-11.64l3.88-.32v-4.2s8.08,0,8.08,0l-.32,3.88h6.95c.74.45.16.7.16.81v11.96l.47.41,3.09-.24v5.82l1.13-.32c-.05-.61.12-1.2.15-1.8.89-17.71-.98-36.31,0-53.98.05-.93.26-1.8.36-2.71l3.86-.34v-3.88c6.25-1.26,12.55-.06,18.87.04,1.02.33.34,3.53.53,4.48h3.88s0,54.31,0,54.31h5.17l.02-4.19,5.48-.34v-1.3s2.27-.54,2.27-.54l.14-45.06,4.36-.97.05-3.51c5.95-1.35,11.65-1.58,17.73-.98l.02,3.86,4.21.32v60.13h4.2v-4.53h2.91s0-3.56,0-3.56h8.73v-5.01c0-.08-.26-.19-.25-.32l.45-.45,4.02-.19.31-3.08h6.79v2.91s5.82.32,5.82.32v13.25c4.33-3.23,7.82-7.63,11.81-11.31l.48.16-10.67,10.67c-.36.85,2.11.54,2.44.17l21-21.68c.53.32-.11.71-.32.97-1,1.2-2.45,2.71-3.56,3.88-5.41,5.77-11.19,11.25-16.66,16.97-.36.85,2.11.53,2.45.18l9.03-9.4c.53.32-.11.71-.32.97-1.82,2.17-4.4,3.89-5.98,6.3l2.2.41c3.31-4.09,7.1-7.8,10.74-11.57-.98,1.21-1.98,2.63-3.07,3.88-2.24,2.59-4.91,5.1-7.28,7.59l.94.18.03,1.6c.32.07.42-.03.65-.15.76-.43,2.96-3.17,3.72-4.04,2.96-3.42,5.55-7.29,8.88-10.35l-12.28,14.71c-.14.73.32.44.8.48.52.04,2.03.12,2.36-.07.25-.14,3.23-4.89,3.62-4.45l-3.23,4.85c1.86.47,2.13.52,3.56-.64-.55.95-1.27,1.73-1.61,2.78l.64,4.33c.03-.37.17-.78.37-1.08,3.14-4.6,13.49-19.93,14.36-24.44.06-.33.42-1.06-.18-.98-.98,1.79-2.24,3.82-3.43,5.46-.97,1.34-2.11,2.64-3.04,3.91,2.07-3.13,5.7-7.94,7.25-11.02.37-.73.69-1.74.84-2.56l-8.57,10.67-.16-.48,8.75-11.29.29-2.13-8.57,10.02-.16-.48,8.55-10.2.17-1.6c-2.84,2.28-4.81,5.43-7.27,8.09-.75.81-1.72,1.51-2.43,2.26,1.84-2.24,9.1-10.05,9.82-11.94.05-.12.42-1.27-.28-.99l-20.06,21.66c-.24.05-.22-.34-.16-.48.31-.7,4.12-4.05,5.01-5.01,5.28-5.7,10.4-11.64,15.53-17.45v-1.31s-4.38,4.04-4.38,4.04c.7-1.77,4.68-3.93,4.53-5.81-.67-.66-.69.37-1.12.81-6.37,6.66-13.19,12.91-19.59,19.55l-.32-.32,20.65-20.74c1.15-2.23-.16-9.28.38-12.23.15-.83.98-1.78,1.77-2.06.37.03,1.35,1.62,1.43,2.06.59,3.19-.58,8.14.02,11.29.17.9,1.11,1.3,1.61,1.95l-1.61-.81c0,.35-.05.73.06,1.06.56,1.66,7.38,6.82,8.66,8.8l-.16.48-8.41-8.4.15,1.79c9.48,9.49,18.39,19.57,28.16,28.75l11.13,11.83c.81.62,1.94.19,2.76-.18l-32.66-32.33-.64-1.13,34.12,33.62c2.06-.54-.54-2.54.81-3.08.99-.4,5.95.87,7.43-.15v3.23h5.82v15.19H0v-61.42ZM478.61,157l-39.13-40.41.3,1.8,12.3,12.92-.16.48-12.29-12.93c-.72,1.7,1.29,2.41,1.78,3.71l-1.94-1.13c-.87.99,2.24,3.61,2.58,4.37.06.14.08.53-.16.48l-2.1-2.26.84,2.56,16.3,20.89-.16.48-15.2-19.4c-1.22-.94.46,1.89.35,1.91,2.66,3.28,19.27,28.66,21.05,29.13.25.07,2.68.28,2.35-.48-2.06-2.67-4.26-5.26-6.27-7.96-.33-.45-1.33-1.35-1.01-1.9l7.93,10.18c1.08.47,2.46.26,2.43-1.13l-20.54-24.89,21.18,24.89c.3-1.25,1.52-.31,2.42-.81l-24.9-28.61c3.02,2.82,5.82,5.95,8.57,9.05,2.24,2.53,16.54,20.03,17.85,20.37.49.13,1.17-.07,1.71,0l-.32,1.29c1,.16.51-.26.63-.81.1-.43.33-1.42.18-1.77-.29-.71-2.37-2.08-2.97-2.71-3.23-3.39-6.07-7.17-9.49-10.39l-.64-1.13c3.15,2.5,5.48,5.85,8.24,8.73,1.02,1.07,4.57,4.97,5.48,5.51,1.03.6,1.72.25,2.77-.02ZM451.45,154.74l2.33,4.46,3.81.39-.05-.75c-3-4.53-6.3-8.94-8.93-13.7-.16-.28-.71-.81-.23-1.06,1.9,2.58,3.35,5.47,5.13,8.12.7,1.03,3.97,6.01,4.82,6.02.29,0,2.47-.14,2.18-.72l-18.43-25.71c.22,1.18.43,2.7.9,3.78.56,1.28,2.34,2.66,2.17,3.98l-1.78-2.26c1.7,6.2,5.55,11.56,8.08,17.46l-7.11-12.93,4.2,17.78h4.85c-.66-1.6-1.26-3.27-1.94-4.85ZM439.16,156.68l.31,2.77c1.04-.67,4.57.76,4.84-.37l-6.77-26.97-6.15,27.48,4.87-.16.31-2.75h2.59ZM421.7,158.95c2.24-5.04,4.79-9.95,7.27-14.88,1.47-2.92,3.67-5.7,4.05-9.04l-13.59,21.48-.63,2.76c1.45-.59,7.68.85,8.26.02l4.67-19.09-10.02,18.75Z"/><polygon class="cls-1" points="482.49 153.77 478.44 150.55 443.04 115.31 444.17 115.95 482.49 153.77"/><path class="cls-1" d="M439.16,156.68h-2.59s-.31,2.75-.31,2.75l-4.87.16,6.15-27.48,6.77,26.97c-.27,1.12-3.8-.3-4.84.37l-.31-2.77Z"/><path class="cls-1" d="M478.61,157c-1.05.27-1.74.62-2.77.02-.91-.53-4.46-4.44-5.48-5.51-2.76-2.88-5.09-6.23-8.24-8.73l.64,1.13c3.42,3.22,6.27,7,9.49,10.39.6.63,2.68,2,2.97,2.71.14.35-.09,1.34-.18,1.77-.12.54.37.97-.63.81l.32-1.29c-.53-.07-1.22.13-1.71,0-1.31-.35-15.61-17.85-17.85-20.37-2.75-3.1-5.55-6.23-8.57-9.05l24.9,28.61c-.9.5-2.12-.44-2.42.81l-21.18-24.89,20.54,24.89c.02,1.39-1.36,1.6-2.43,1.13l-7.93-10.18c-.32.56.67,1.46,1.01,1.9,2.01,2.7,4.21,5.29,6.27,7.96.33.77-2.11.55-2.35.48-1.78-.48-18.39-25.86-21.05-29.13.11-.02-1.57-2.85-.35-1.91l15.2,19.4.16-.48-16.3-20.89-.84-2.56,2.1,2.26c.24.05.22-.34.16-.48-.34-.75-3.46-3.37-2.58-4.37l1.94,1.13c-.49-1.3-2.5-2.02-1.78-3.71l12.29,12.93.16-.48-12.3-12.92-.3-1.8,39.13,40.41Z"/><path class="cls-1" d="M451.45,154.74c-2.53-5.89-6.38-11.26-8.08-17.46l1.78,2.26c.18-1.32-1.61-2.69-2.17-3.98-.47-1.08-.69-2.6-.9-3.78l18.43,25.71c.3.58-1.89.73-2.18.72-.85,0-4.12-4.99-4.82-6.02-1.79-2.65-3.23-5.54-5.13-8.12-.48.25.07.78.23,1.06,2.63,4.76,5.93,9.18,8.93,13.7l.05.75-3.81-.39-2.33-4.46c.68,1.58,1.28,3.25,1.94,4.85h-4.85l-4.2-17.78,7.11,12.93Z"/><path class="cls-1" d="M421.7,158.95l10.02-18.75-4.67,19.09c-.58.83-6.82-.6-8.26-.02l.63-2.76,13.59-21.48c-.37,3.34-2.58,6.12-4.05,9.04-2.48,4.93-5.03,9.84-7.27,14.88Z"/><rect class="cls-1" x="424.4" y="122.35" width="7.54" height=".47" transform="translate(38.57 338.37) rotate(-44.96)"/></g></svg>