<?xml version="1.0" encoding="UTF-8" standalone="no"?>
<!-- Created with Inkscape (http://www.inkscape.org/) -->

<svg
   width="63.64323mm"
   height="91.822304mm"
   viewBox="0 0 63.64323 91.822304"
   version="1.1"
   id="svg1"
   xml:space="preserve"
   inkscape:version="1.4.1 (1:1.4.1+202503302257+93de688d07)"
   sodipodi:docname="sketchbook.svg"
   inkscape:export-filename="drawing.png"
   inkscape:export-xdpi="400"
   inkscape:export-ydpi="400"
   xmlns:inkscape="http://www.inkscape.org/namespaces/inkscape"
   xmlns:sodipodi="http://sodipodi.sourceforge.net/DTD/sodipodi-0.dtd"
   xmlns="http://www.w3.org/2000/svg"
   xmlns:svg="http://www.w3.org/2000/svg"><sodipodi:namedview
     id="namedview1"
     pagecolor="#ffffff"
     bordercolor="#000000"
     borderopacity="0.25"
     inkscape:showpageshadow="2"
     inkscape:pageopacity="0.0"
     inkscape:pagecheckerboard="0"
     inkscape:deskcolor="#d1d1d1"
     inkscape:document-units="mm"
     inkscape:zoom="5.4606372"
     inkscape:cx="-4758.5106"
     inkscape:cy="3701.7658"
     inkscape:window-width="3782"
     inkscape:window-height="2091"
     inkscape:window-x="58"
     inkscape:window-y="32"
     inkscape:window-maximized="1"
     inkscape:current-layer="layer1"
     inkscape:export-bgcolor="#ffffff00"><inkscape:page
       x="0"
       y="0"
       width="63.64323"
       height="91.822304"
       id="page2"
       margin="0"
       bleed="0" /></sodipodi:namedview><defs
     id="defs1"><clipPath
       clipPathUnits="userSpaceOnUse"
       id="clipPath159-5-1-7"><rect
         style="fill:#474747;fill-opacity:1;stroke:#474747;stroke-width:0.184485;stroke-linejoin:round;stroke-dasharray:none;stroke-opacity:1"
         id="rect160-6-5-8"
         width="40.106556"
         height="9.0967398"
         x="210.53375"
         y="1633.8839"
         ry="0" /></clipPath></defs><g
     id="g16-0-9-2-0-7-5-9-0-35-7-60-9-7-1-4-8-3-3-4"
     style="fill:#fafaf5;fill-opacity:1"
     transform="matrix(0.99048484,0,0,1.0368192,-25.331681,-20.161515)"
     inkscape:export-filename="../Documents/MIT/6.c85/src/lib/images/card_blanks/resolution_card_4.svg"
     inkscape:export-xdpi="400"
     inkscape:export-ydpi="400"><rect
       style="fill:#fafaf5;fill-opacity:1;stroke:none;stroke-width:0.265;stroke-linecap:butt;stroke-linejoin:round;stroke-dasharray:none;stroke-opacity:1;paint-order:normal"
       id="rect4-90-9-4-6-4-3-60-7-9-4-5-2-1-5-1-1-8-0-6"
       width="64.254623"
       height="88.56147"
       x="25.575031"
       y="19.445478"
       ry="4.5672493" /><rect
       style="fill:#fafaf5;fill-opacity:1;stroke:#3d3d3d;stroke-width:0.265446;stroke-linecap:butt;stroke-linejoin:round;stroke-dasharray:none;stroke-opacity:1;paint-order:normal"
       id="rect4-0-1-2-5-1-8-2-2-7-1-87-6-0-7-9-8-3-3-2-2"
       width="57.054729"
       height="81.208397"
       x="29.154644"
       y="22.957485"
       ry="0" /></g><rect
     style="fill:#474747;fill-opacity:1;stroke:#474747;stroke-width:0.268999;stroke-linejoin:round;stroke-dasharray:none;stroke-opacity:1"
     id="rect158-5-5"
     width="30.32128"
     height="19.391968"
     x="214.61295"
     y="1635.0874"
     ry="5.3105054"
     clip-path="url(#clipPath159-5-1-7)"
     transform="matrix(0.05762219,0.63117517,-0.49403085,0.04510181,822.43849,-194.20402)" /><g
     id="g448-4-8-71-4-7-7-3-1-7-6-3"
     transform="matrix(0,2.9951118,-2.9951118,0,788.40062,-175.82782)"
     style="opacity:0.99"><g
       id="g19-3-5-0-0-1-5-1-1-9-1-3-2"
       transform="matrix(-1,0,0,1,105.79074,54.93329)"
       style="opacity:0.994"><circle
         style="fill:#575757;fill-opacity:1;stroke:none;stroke-width:0.165;stroke-linecap:butt;stroke-dasharray:none;stroke-opacity:1"
         id="path8-06-7-7-1-2-9-6-7-9-3-7-0"
         cx="39.011879"
         cy="197.36305"
         r="2.2450638" /></g></g><g
     id="g469-3-0"
     transform="matrix(0,-0.53195182,-0.51171531,0,355.36632,-200.38332)"
     style="opacity:0.99"><path
       style="opacity:1;fill:#1f1f1f;fill-opacity:1;stroke:#1f1f1f;stroke-width:0.00797298;stroke-linecap:round;stroke-linejoin:round;stroke-dasharray:none;stroke-dashoffset:0;stroke-opacity:1"
       d=""
       id="path484-4-0"
       transform="matrix(0.23012115,0,0,0.23012115,-38.647574,-21.716825)" /><g
       style="clip-rule:evenodd;fill-rule:evenodd;stroke-linejoin:round;stroke-miterlimit:1.41421"
       id="g488-7-9"
       transform="matrix(0.23012115,0,0,0.23012115,-507.55729,601.68911)"><g
         transform="matrix(1.4766298,0,0,1.4766298,284.53333,30.768589)"
         id="g1-2-8-2-8"
         style="clip-rule:evenodd;fill-rule:evenodd;stroke-linejoin:round;stroke-miterlimit:1.41421"><path
           d="m 24.521044,51.805178 c -1.496398,-0.243897 -3.034305,0.06884 -4.294103,0.872322 -3.784579,2.466501 -11.9359011,7.755513 -13.5755051,8.393774 -2.149127,0.835935 -7.15199804,4.239667 -7.08868804,5.407026 0.0643,1.167359 1.010738,0.8202 1.010738,0.8202 0,0 2.05261904,-0.981487 6.58332204,-0.671699 4.5296651,0.309788 11.8943921,1.738745 13.8172951,2.546161 0,0 0,0 0,0 1.92394,0.806431 11.004025,5.656823 13.520506,6.862537 0,0 0.001,0 0.001,0 2.516481,1.206696 7.671893,4.223931 14.801058,4.123618 7.128125,-0.100311 12.521177,-2.208836 20.755517,-7.369998 8.295565,-5.199518 8.73141,-6.567501 8.73141,-6.567501 0,0 -2.941949,-0.199641 -5.009094,-0.340274 -1.323099,-0.08949 -2.632706,-0.297987 -3.914295,-0.62056 -4.181991,-1.053277 -13.895087,-3.502076 -16.23308,-4.104933 -3.001097,-0.773978 -13.464468,-4.882845 -16.611885,-5.68436 -2.606762,-0.66383 -8.305943,-2.7399 -12.494196,-3.666313 z M 67.148669,15.153842 c 0.463863,-1.221448 1.771395,-2.020012 3.187888,-1.851841 1.102063,0.130798 2.351482,0.2793 3.454583,0.4101 1.435172,0.170137 2.505066,1.276522 2.612989,2.591399 2.547612,0.958866 8.014342,3.384062 13.257961,8.107588 6.977657,6.28525 8.492733,9.574901 8.492733,9.574901 0,0 1.84404,3.483391 2.005927,11.429692 0.16292,7.945319 -3.306194,20.142106 -5.365039,20.859043 -1.883468,0.655964 -13.444752,-0.47894 -15.39671,-0.676614 -0.184715,-0.01869 -0.36943,-0.03442 -0.555183,-0.04524 C 78.07279,65.50468 75.847909,65.36798 74.286135,65.271602 73.13011,65.200792 71.982387,65.033607 70.856457,64.773975 66.615279,63.802322 56.075117,61.358442 53.00034,60.203868 49.12029,58.74639 40.609916,56.050745 35.466956,54.125144 31.067007,52.476875 26.60168,51.734369 23.702279,50.999729 c -0.513673,-0.148502 -0.932913,-0.501562 -1.150835,-0.966734 -0.217923,-0.465174 -0.211696,-0.997222 0.0166,-1.457479 -0.001,-9.82e-4 -0.001,-9.82e-4 -0.001,-9.82e-4 0.338298,-0.68055 2.146013,-2.488138 6.408983,-13.917831 4.26297,-11.428709 6.411059,-12.00108 7.177937,-12.538045 0.765841,-0.535982 5.420033,-3.413566 6.14644,-3.774494 0.726406,-0.360927 6.570867,-2.76252 15.348974,-2.978879 0,0 4.490232,-0.05704 7.857646,-0.173088 z"
           fill="#000000"
           id="path1-39-3-1-0"
           style="stroke-width:1.01022" /></g></g></g><g
     id="g449-8-4-2-8-1-0-1-9"
     transform="matrix(0,0.95595885,-0.95595885,0,277.32753,-16.964415)"><text
       xml:space="preserve"
       style="font-size:1.64626px;line-height:0.9;font-family:sans-serif;-inkscape-font-specification:sans-serif;text-align:center;letter-spacing:0.0411565px;writing-mode:lr-tb;direction:ltr;text-anchor:middle;white-space:pre;inline-size:15.0538;display:inline;opacity:0.994;fill:#000000;fill-opacity:1;stroke:none;stroke-width:0.0699985;stroke-linecap:round;stroke-dasharray:none;stroke-opacity:1"
       x="33.644672"
       y="214.34662"
       id="text3-8-5-7-09-0-02-8-1-6-5-6"
       transform="matrix(2.5714844,0,0,2.5714844,-5.2027932,-298.08064)"><tspan
         x="33.644672"
         y="214.34662"
         id="tspan2"><tspan
           style="fill:#1f1f1f;stroke:#1f1f1f;stroke-linejoin:bevel"
           id="tspan1">1 IN 3 ROXBURY</tspan><tspan
           y="214.34662"
           id="tspan3"> </tspan></tspan><tspan
         x="33.644672"
         y="215.82825"
         id="tspan5"><tspan
           style="fill:#1f1f1f;stroke:#1f1f1f;stroke-linejoin:bevel"
           id="tspan4">HOMES ARE</tspan><tspan
           y="215.82825"
           id="tspan6"> </tspan></tspan><tspan
         x="33.644672"
         y="217.30988"
         id="tspan8"><tspan
           style="fill:#1f1f1f;stroke:#1f1f1f;stroke-linejoin:bevel"
           id="tspan7">INVESTMENT</tspan><tspan
           y="217.30988"
           id="tspan9"> </tspan></tspan><tspan
         x="33.644672"
         y="218.79151"
         id="tspan11"><tspan
           style="fill:#1f1f1f;stroke:#1f1f1f;stroke-linejoin:bevel"
           id="tspan10">PROPERTIES</tspan></tspan></text></g><g
     id="g34-7-5-0-1-8-7"
     transform="translate(-13.076901,-1329.8056)"><rect
       style="fill:#fafaf5;fill-opacity:1;stroke:none;stroke-width:2"
       id="rect7-6-9-5-0-2-2"
       width="22.918188"
       height="3.682415"
       x="32.03252"
       y="1415.8159" /><text
       xml:space="preserve"
       style="font-size:1.94028px;font-family:sans-serif;-inkscape-font-specification:sans-serif;text-align:center;letter-spacing:-0.132291px;writing-mode:lr-tb;direction:ltr;text-anchor:middle;fill:#797979;fill-opacity:1;stroke:#000000;stroke-width:0;stroke-linecap:round;stroke-linejoin:bevel;stroke-dasharray:none;stroke-opacity:1;paint-order:normal"
       x="43.733559"
       y="1418.3405"
       id="text13-5-3-6-6-8-5-7-1-6-0-8-9-3-7-6-4-1-1"><tspan
         sodipodi:role="line"
         style="font-style:normal;font-variant:normal;font-weight:normal;font-stretch:normal;font-size:1.94028px;font-family:'PT Sans Caption';-inkscape-font-specification:'PT Sans Caption';text-align:center;letter-spacing:-0.132291px;text-anchor:middle;fill:#191919;fill-opacity:1;stroke:#6c6c6c;stroke-width:0;stroke-dasharray:none;stroke-opacity:1"
         x="43.667412"
         y="1418.3405"
         id="tspan26-1-2-7-5-90-8-4-6-7-9-1-5-6-8-0-4">© ROBBER BARONS, 2025</tspan></text></g></svg>
