<?xml version="1.0" encoding="UTF-8"?><svg id="Layer_2" xmlns="http://www.w3.org/2000/svg" viewBox="0 0 712 1201.76"><defs><style>.cls-1{fill:#405342;}.cls-2{fill:#ce476c;}.cls-3{fill:#231f20;font-family:Helvetica, Helvetica;font-size:158px;}</style></defs><g id="Layer_1-2"><text class="cls-3" transform="translate(0 135.67) scale(1.07 1)"><tspan x="0" y="0">CHANCE</tspan></text><path class="cls-1" d="M128.25,461.68c.85.08,1.54-.02,1.83-.94,13.55-94.88,76.17-160.55,169.02-181.27,191.71-42.79,332.91,161.53,237.66,326.62-47.14,81.72-125.82,127.68-191.7,190.09-18.06,17.11-40.34,39.56-25.97,66.8,14.15,26.82,46.84,18.97,66.54,3.34,7.59-6.02,14.11-20.06,24.32-19.14,2.09,2.07-10.11,50.28-12.01,57.48-4.19,15.82-9.95,36.15-15.25,51.47-3.86,11.18-10.59,32.25-23.66,33.79-68.46,8.06-144.87-35.86-154.79-107.53-.24-1.75.13-3.75,0-5.56-.35-4.71,1.68-11.65-1.85-14.83-.01-3.08-.09-6.19,0-9.27,2.8-1.29,1.76-4.98,1.85-7.41.04-1.23.04-2.48,0-3.71s.1-2.49,0-3.71l1.85-3.71c.71-.94,4.04-17.99,6-22.73,38.05-92.13,142.56-152.79,208.09-223.74,129.96-140.7-71.93-289.28-161.51-155.95-28.7,42.72-30.32,85.06,9.55,120.67,12.26,10.95,23.15,8.42,5.46,24.08-15.26,13.51-48.61,38.56-65.9,49-8.83,5.33-21.64,12.98-30.5,4.88-26.29-24.01-46.88-83.72-49.03-118.7-.25-4.1,1.53-10.38-1.85-12.97v-3.71c0-1.85.03-3.71,0-5.56.83,0,1.56.06,1.84-.93-.2-3.95.4-8.14.02-12.04-.13-1.33-2.01-3.66-1.85-5.56.08-.41,1.61-1.1,1.85-1.85.57-1.76-.39-5.25,0-7.41ZM477.37,336.8c-68.47-61.31-162.13-61.84-238.89-14.15-88.17,54.78-122.71,172.86-69.78,264.46,8.55,14.79,15.06,30.36,33.2,19.59,11.08-6.58,42.27-27.84,51.17-35.92,11.58-10.53-4.3-14.85-10.91-21.9-31.12-33.17-18.9-98.65,6.88-132.27,84.28-109.9,250.43-32.81,224.93,100.75-27.51,144.1-266.82,206.76-253.01,354.82,5.37,57.6,68.65,110.52,126.82,100.93,11.48-1.89,20.47-31.82,24.12-42.59,1.51-4.45,10.52-32.4,10.37-34.18-.74-9.15-14.88-.14-21.63.69-44.76,5.55-79.06-32.88-58.51-75.2,8.49-17.48,60.54-62.45,77.82-78.39,61.64-56.84,144.19-114.34,166.63-199.8,19.5-74.28-13.46-156.91-69.2-206.83Z"/><path class="cls-1" d="M326.07,1025.54c102.61-15.94,143.89,120.64,60.35,165.99-44.32,24.06-99.85,3.7-121.72-40.65-23.16-46.96,8.23-117.09,61.37-125.35ZM335.41,1044.16c-77.07,8.14-84.3,132.78,5.07,138.44,99.63,6.31,92.19-148.71-5.07-138.44Z"/><path class="cls-2" d="M477.37,336.8c55.75,49.92,88.71,132.56,69.2,206.83-22.44,85.46-104.99,142.96-166.63,199.8-17.28,15.93-69.33,60.9-77.82,78.39-20.54,42.32,13.75,80.74,58.51,75.2,6.75-.84,20.88-9.84,21.63-.69.14,1.78-8.87,29.73-10.37,34.18-3.65,10.78-12.63,40.7-24.12,42.59-58.17,9.59-121.45-43.33-126.82-100.93-13.8-148.06,225.5-210.72,253.01-354.82,25.5-133.57-140.65-210.65-224.93-100.75-25.78,33.62-38,99.1-6.88,132.27,6.62,7.05,22.5,11.37,10.91,21.9-8.9,8.09-40.09,29.34-51.17,35.92-18.14,10.78-24.65-4.8-33.2-19.59-52.93-91.59-18.39-209.68,69.78-264.46,76.75-47.69,170.42-47.16,238.89,14.15Z"/><path class="cls-2" d="M335.41,1044.16c97.26-10.27,104.71,144.74,5.07,138.44-89.38-5.66-82.14-130.3-5.07-138.44Z"/></g></svg>