<?xml version="1.0" encoding="UTF-8"?><svg id="Layer_2" xmlns="http://www.w3.org/2000/svg" viewBox="0 0 466.87 572.27"><defs><style>.cls-1{fill:#32373a;}.cls-2{fill:#c0c6c1;}.cls-3{fill:#d2c9d0;}.cls-4{fill:#e9dfe3;}.cls-5{fill:#868680;}.cls-6{fill:#fafafa;}.cls-7{fill:#5c5c64;}.cls-8{fill:#737e7f;}.cls-9{fill:#dadbe0;}.cls-10{fill:#0a0d0d;}.cls-11{fill:#909588;}.cls-12{fill:#929295;}.cls-13{fill:#b4b6bf;}.cls-14{fill:#7b7884;}.cls-15{fill:#181c1e;}</style></defs><g id="Layer_1-2"><g id="Generative_Object"><path class="cls-1" d="M341.13,172.5c-5.03,1.77-11.04,3.48-15.8,5.38-2.8,1.01-7.01,2.82-9.87,4.03-44.1,19.36-80.84,53.69-107.96,93.06-3.52,5.11-6.45,10.92-9.87,16.13,34.37-33.42,88.5-92.46,139.23-54.76,30.37,22.57,29.92,73.73,18.1,106.5-26.41,73.23-139.43,93.97-205.72,103.81-2.94,6.24-6.2,12.47-8.89,18.81-1.72,4.65-3.66,9.46-5.27,14.11-1.69,4.83-3.86,11.28-5.27,16.13-.66,2.16-1.35,4.54-1.97,6.72-1.1,4.16-2.32,8.6-3.29,12.77-.21.88-.46,1.83-.66,2.69s-.47,1.85-.66,2.69c-3.51,16.49-5.18,33.37-7.24,50.06l13.82,1.68c112.38-.35,224.79-.68,337.06-.67-.04-61.45-1.72-123.39-11.19-184.1-1.89-12.12-4.66-24.93-7.24-36.95-1.85-7.96-3.83-16.29-5.92-24.19-1.24-4.61-2.6-9.52-3.95-14.11-.79-2.84-1.78-5.86-2.63-8.73-2.49-7.99-5.15-16.29-7.9-24.19-.61-1.73-1.33-3.63-1.97-5.38-1.03-2.86-2.2-5.89-3.29-8.73-.45-1.1-.88-2.31-1.32-3.36-.58-1.5-1.35-3.15-1.97-4.7-.67-1.55-1.3-3.2-1.97-4.7-.82-1.95-1.77-4.11-2.63-6.05-6.15-13.08-14.25-28.8-22.38-40.65-4.17-6.08-17.66-19.47-19.75-23.52-1.53-2.96-2.26-15.97-3.62-16.46-9.2,2.7-18.75,4.17-27.98,6.72Z"/><path class="cls-15" d="M325.33,177.87c4.76-1.89,10.77-3.6,15.8-5.38-6.65,1.84-9.68,3.16-15.8,5.38Z"/><path class="cls-15" d="M315.46,181.9c2.87-1.22,7.08-3.02,9.87-4.03-3.56,1.41-6.33,2.47-9.87,4.03Z"/><path class="cls-15" d="M140.35,465.44c2.69-6.34,5.95-12.57,8.89-18.81,66.29-9.84,179.32-30.58,205.72-103.81,11.82-32.77,12.27-83.93-18.1-106.5-50.73-37.7-104.86,21.34-139.23,54.76,3.43-5.2,6.35-11.02,9.87-16.13,27.12-39.37,63.86-73.7,107.96-93.06-74.15,31.43-96.66,82.12-145.49,140.09-7.93,9.41-15.09,19.56-22.71,29.23l-67.15-77.94-6.58,4.03-1.65-1.01c.42-6.57-7.18-27.88-3.62-32.59,6.63-6.2,59.59-41.09,60.89-44.68,1.94-5.33-14.12-17.56-15.14-21.5-.43-1.65,1.77-2.5.66-4.7-.45-.89-12.56-9.64-15.14-12.77-.3-.36.82-2.65-1.65-4.37-2.48-1.73-12.67-3.91-15.8-6.72-2.73-2.46-.09-3.5-1.97-4.7-3.18-2.02-14.39.26-16.46-4.7l3.62,84.99-8.56,1.68c.67,1.93,1.03,3.8,1.97,5.71.34.7,1.61-.03,1.97.67.17.32-1.55,4.36,2.63,5.71-.1-.34.05-.91,0-1.34-.85-.88-1.68-1.59-2.63-2.35l.99-1.01c18.59-10.85,34.97-25.31,52.67-37.63.8-1.8-3.33-4.49-4.28-5.38-2.3,3.25-11.1,11.27-14.15,12.77-1.2.59-1.1,1.22-2.3-.34l16.46-12.43c-.14-.13-.64-3.28-2.63-2.69-2.02,4.43-6.76,7.13-10.53,9.74,2.99-3.78,6.75-6.85,10.53-9.74.15-.11-.31-1.88.33-2.02l8.89,10.41-51.68,37.29.66,3.36,53.65-40.65c.18-1.39-9.37-10.2-10.53-12.09-.59-.95-1.76-2.21-.33-3.02l12.84,15.12-56.62,42.67h-.66c1.03.8,1.56.54,2.3,1.34l57.6-42.67-14.15-19.15,16.13,19.15c-.53.58-1.13,1.09-1.65,1.68-2.31,2.63-52.77,40.27-55.96,41.66-2.65,1.15-4.16-.66-4.28-.34-2.78,7.69,4.63,28.36,5.27,36.95l-33.24,20.49c-8.96-18.25-32.02-44.47-35.22-64.17-2.11-12.99-3.09-43.91,9.87-51.06l3.29,32.92-1.65-72.9,45.75-1.01c1.49,9.6,5.77,76.38,3.29,79.96-.56.8-4.99.1-6.25.34-1.18.61.78,1.9.99,2.69l7.9-1.68-3.95-83.99-49.04,1.68-1.65,1.68,1.32,37.63c-16.09,10.69-14.22,47.81-8.56,63.83l32.26,54.42-9.22,6.72c16.84,42.63,36.37,85.71,65.83,120.94,2.3,2.75,19.95,21.96,21.4,22.51,4.24,1.6,32.57-3.19,33.24-1.01-3.55,5.48-5.03,11.79-7.24,17.81Z"/><path class="cls-6" d="M62.67,230.28c15.21-4.55,5.64-10.1,7.24-23.18l26.99-47.03c.13-1.35-15.15-10.35-16.13-10.41-.9-.06-1.11.46-1.65,1.01,2.4,2.52,15.92,7.18,15.8,10.08l-25.35,44.68c-1.92-7.06,23.11-42.17,22.71-44.68-3.73-2.2-9.82-7.34-13.82-6.72,1.44,1.52,11.72,6.05,11.85,7.39.21,2.14-19.21,32.53-21.72,36.95-3.16,9.36,8.67,33.5-7.57,29.23-2.26,1.93.81,1.53,1.65,2.69Z"/><path class="cls-6" d="M109.41,187.95c1.99-.59,2.5,2.56,2.63,2.69.95.89,5.08,3.57,4.28,5.38-17.7,12.32-34.08,26.77-52.67,37.63l-.99,1.01c.95.76,1.79,1.47,2.63,2.35.6.62,1.06,1.19,1.32,2.02l56.62-42.67-12.84-15.12c-1.43.81-.26,2.07.33,3.02,1.17,1.9,10.71,10.71,10.53,12.09l-53.65,40.65-.66-3.36,51.68-37.29-8.89-10.41c-.64.13-.18,1.9-.33,2.02Z"/><polygon class="cls-6" points="98.55 161.75 71.23 212.48 98.55 163.76 110.72 174.85 73.53 221.55 113.36 174.18 98.55 161.75"/><path class="cls-6" d="M99.86,167.79c-1.17,2.99,6.08,4.95,5.6,7.73-.78,4.43-32.06,32.19-33.24,41.32l35.88-41.99-8.23-7.05Z"/><path class="cls-6" d="M66.95,143.61c-.88-.02-1.76.02-2.63,0-2.4,1.23,11.84,3.08,12.18,3.7,1.38,2.51-9.49,33.57-7.57,39.31l9.55-39.98c-.29-.82-10.26-2.99-11.52-3.02Z"/><path class="cls-4" d="M79.78,220.2l28.64-36.95-35.22,41.99c2.63-.24,4.46-3.44,6.58-5.04Z"/><path class="cls-4" d="M97.89,169.81c-1.92,1.37,3.57,4.12,3.62,5.04.1,1.84-22.8,22.69-22.71,28.56l24.69-28.56-5.6-5.04Z"/><path class="cls-4" d="M79.78,220.2c11.55-8.7,23.72-16.62,34.89-25.87l-26,15.79c-.21,4.96-6.47,5.62-8.89,10.08Z"/><path class="cls-6" d="M77.48,162.42l-9.22,32.92c5.4-9.99,8.8-21.37,9.22-32.92Z"/><path class="cls-6" d="M70.24,147.64c-1.43-.17-3.56-.14-4.94.34,1.13,1.92,6.53.3,7.24,2.02.87,2.09-7.13,22.68-4.94,27.21-.14-4.47,7.28-24.92,6.91-27.21-.28-1.75-3.11-2.21-4.28-2.35Z"/><path class="cls-4" d="M112.04,190.64l-16.46,12.43c1.21,1.56,1.1.93,2.3.34,3.06-1.5,11.85-9.52,14.15-12.77Z"/><path class="cls-4" d="M77.15,179.89c2.67-4.66,6.34-9.63,8.56-14.45.65-1.4,2.77-3.86.99-5.04-3.59,6.63-7.06,12.44-9.55,19.48Z"/><path class="cls-4" d="M99.2,173.84c-4.25,3.23-9.05,7.79-11.19,12.77l11.19-12.77Z"/><path class="cls-4" d="M69.58,150.33c-3.26,1-.29,1.54-.33,1.68-1.04,4.16-3.32,8.52-2.3,13.1.64-1.75,4.44-14.21,2.63-14.78Z"/><path class="cls-3" d="M109.41,187.95c-3.78,2.9-7.54,5.96-10.53,9.74,3.78-2.62,8.51-5.32,10.53-9.74Z"/><path class="cls-4" d="M82.75,161.75c-1.07.23-5.74,9.01-4.61,9.41l4.61-9.41Z"/><path class="cls-4" d="M79.45,157.04c-.91,0-1.1.41-1.65,1.01,1.83.12,5.32,3.32,7.24,2.02-1.08-.22-5.17-3.02-5.6-3.02Z"/><path class="cls-13" d="M96.57,171.83c-.95.92-2.67,2.53-1.97,4.03.59-.99,2.65-2.73,1.97-4.03Z"/><path class="cls-6" d="M91.96,207.44c-1.64-.63-2.31,1.36-1.32,2.02.1.07,2.48-1.2,1.32-2.02Z"/><path class="cls-6" d="M94.6,204.75c-1.41-.64-1.91,2.13-.66,2.02.41-.04,1.57-1.6.66-2.02Z"/><path class="cls-4" d="M77.15,179.89c-.11.19-2.21.85-.99,2.02,1.08-.58.76-1.37.99-2.02Z"/><path class="cls-12" d="M62.67,230.28c.05.07-2.23-.27-.99,1.34,1.37.33.91-1.32.99-1.34Z"/><path class="cls-9" d="M80.11,160.4c-.43-.06-1.58,1.9-.66,2.02.43.06,1.58-1.9.66-2.02Z"/><path class="cls-2" d="M67.6,152.34c-1.21-.25-1.35,1.11-.66,2.02.18-.55,1.1-1.54.66-2.02Z"/><path class="cls-15" d="M203.55,103.96c.27.69,3.67,7.72,3.95,8.06,5.49,6.78,1.49-10.79,2.63-15.45.14-.57-.32-1.67.33-2.02l37.52-.67c4.5,2.92,3.74,26.86,1.65,31.91-2.4,5.78-23.17,23.08-28.64,21.84-.81-.18-6.87-7.54-8.56-8.73-6.1-4.31-12.17-5.29-19.42-6.05-.19.38-3.64,1.79-4.61,5.04-3.78,12.6,12.38,10.86,15.14,17.47,4.7,11.24-8.38,6.31-12.84,8.4-2.27,1.07-10.18,31.45-10.86,35.95-2.13,14.06-2.66,30.99,4.61,43.67,10.72,18.71,26.97,3.79,38.51-5.71,17.71-14.59,52.71-51.22,54.31-74.58-1.34-17.61-6.4-34.43-11.85-51.06-.63-1.93-1.36-3.59-1.97-5.38-.78-2.26-6.02-11.49-3.95-13.1,4.9-1.78,15.29,3.03,15.47-5.04-18.62-.2-37.01,1.12-55.63,0-3.16-.19-6.85.38-9.87,0-3.39-.43-3.18-3.31-4.94-3.36-4.47-.12-1.35,15.32-.99,18.81Z"/><path class="cls-15" d="M210.13,96.57l36.54-1.34c11.29,25.34-3.58,41.55-25.02,51.74-7.13-8.34-15.85-15.52-27.32-15.12l13.17-19.82c-.28-.35-3.68-7.38-3.95-8.06.25,2.41,2.02,5.79,1.97,6.38-.07.85-8.02,11.95-9.22,14.11-1.37,2.48-2.23,6.34-3.29,8.4,7.25.75,13.32,1.74,19.42,6.05,1.69,1.2,7.75,8.55,8.56,8.73,5.47,1.25,26.24-16.06,28.64-21.84,2.1-5.06,2.86-28.99-1.65-31.91l-37.52.67c-.65.35-.19,1.44-.33,2.02Z"/><path class="cls-15" d="M277.28,163.09c1.15-16.82-5.49-35.89-11.85-51.06,5.45,16.64,10.51,33.45,11.85,51.06Z"/><path class="cls-6" d="M210.13,96.57c-1.14,4.66,2.85,22.23-2.63,15.45l-13.17,19.82c11.47-.4,20.19,6.78,27.32,15.12,21.43-10.19,36.3-26.4,25.02-51.74l-36.54,1.34Z"/><path class="cls-6" d="M209.47,88.51c3.02.38,6.72-.19,9.87,0l59.25-3.02c-7.03-3.35-22.51,1.06-28.64-1.01-4.51-1.52-23.66-34.1-16.79-41.32-.38-1.19-9.68-4.02-10.86-3.7-3.27.89-11.91,21.95-12.84,25.87-1.52,6.43-3.82,18.08,0,23.18Z"/><path class="cls-15" d="M203.55,103.96c-.36-3.5-3.48-18.93.99-18.81,1.75.05,1.54,2.93,4.94,3.36-3.82-5.1-1.52-16.75,0-23.18.93-3.91,9.56-24.98,12.84-25.87,1.18-.32,10.49,2.51,10.86,3.7-6.87,7.22,12.28,39.8,16.79,41.32,6.13,2.07,21.61-2.34,28.64,1.01l-59.25,3.02c18.62,1.12,37.01-.2,55.63,0-.18,8.07-10.57,3.26-15.47,5.04-2.07,1.61,3.17,10.85,3.95,13.1l-2.96-11.42c2.95-.34,10.81.59,13.17-.67,3.95-2.11,5.06-16.36,17.12-8.06,11.38,7.83,5.76,33.55-2.3,42.67,7.24,7.77,25.4,23.57,35.88,24.52,4.57.42,31-6.65,31.93-4.37-.12,5.83,1.38,11.39,3.29,16.8-6.11,2.23-12.3,4.22-18.43,6.38,9.22-2.55,18.78-4.02,27.98-6.72,1.36.5,2.09,13.5,3.62,16.46,2.09,4.05,15.58,17.44,19.75,23.52,8.13,11.85,16.23,27.57,22.38,40.65-8.62-19.36-16.97-35.02-29.62-52.07-2.2-2.97-11.01-10.92-11.85-12.77-1.08-2.37-2.04-15.57-2.63-16.13-3.31-3.09-8.34,6.45-11.85-4.7-9.77-31.05,33.85-78.09,5.92-125.64C344.68.78,280.79-3.32,246.01,1.84c-19.14,2.84-51.9,16.54-25.35,37.29-7.45,10-12.77,23.1-14.48,35.61-.28,2.06.47,9.15,0,10.08-.36.7-3.39-2.82-5.27.67-2.57,4.78.91,14.06,2.63,18.48Z"/><path class="cls-15" d="M281.56,1.84c-14.84-.56-67.72.18-69.45,21.84-1.04,13.04,16,13.94,23.04,18.81-5.28,14.67,6.87,28.56,14.81,39.98,6.78.24,13.63-.32,20.41,0,.21,0,3.74,1.33,3.95,1.34,8.71.41,12.69-4.8,20.08,4.37,6.44,7.99,5.27,21.49,1.97,30.24-.82,2.18-6.1,9.68-5.92,10.75.54,3.24,21.92,18.19,26,19.82,5.81,2.31,7.82,2.29,12.51,2.02,9.63-.56,18.73-3.69,28.31-4.03,2.18-22.42,14.08-44.72,15.47-66.85,3.84-61.01-40.37-76.35-91.18-78.28Z"/><path class="cls-6" d="M65.96,239.02c-.14-.11-.4.23-.66-.67-4.18-1.35-2.46-5.39-2.63-5.71-.37-.7-1.63.03-1.97-.67-.95-1.92-1.31-3.78-1.97-5.71-.02-.07-.32-.03-.66-1.34-.2-.79-2.16-2.08-.99-2.69,1.26-.23,5.7.47,6.25-.34,2.48-3.57-1.8-70.36-3.29-79.96l-45.75,1.01,1.65,72.9-3.29-32.92C-.33,190.06.65,220.99,2.76,233.98c3.2,19.7,26.26,45.91,35.22,64.17l33.24-20.49c-.63-8.6-8.05-29.26-5.27-36.95.12-.32,1.63,1.49,4.28.34,3.19-1.39,53.65-39.03,55.96-41.66.52-.59,1.12-1.1,1.65-1.68l-16.13-19.15,14.15,19.15-57.6,42.67c-.74-.81-1.28-.55-2.3-1.34Z"/><path class="cls-11" d="M65.3,238.34c.26.9.52.56.66.67h.66c-.26-.83-.72-1.39-1.32-2.02.05.43-.1,1,0,1.34Z"/><path class="cls-10" d="M34.03,148.98l-.99,17.13.99,19.15c1.78,0,1.38-33.6,0-36.28Z"/><path class="cls-10" d="M58.39,142.93l-43.78,2.35,1.97,71.89c1.9,1.23,5.65,9.31,6.91,9.74,1.67.57,7.33-1.06,8.23,1.01.67,1.54-.74,5.75-.66,6.05.11.39,5.61,4.08,6.25,5.04,2.99-2.23-14.76-39.29-10.2-50.06.6-1.43,4.42-3.48,4.61-4.03,2.41-7.15-3.24-26.4,0-34.94-.69-1.28-2.2-1.28-2.63,0-2.27,6.64,1.96,27.73-.33,35.95-1.78,0-.28-33.88-.99-35.95-.44-1.28-1.94-1.28-2.63,0,.99,22.71-.32,45.3,1.97,67.86l3.95,1.34h-8.56s-1.97-70.55-1.97-70.55l3.29,69.21h1.97s-2.63-69.21-2.63-69.21l29.95-1.68.33,60.81-1.32-58.45-1.97,51.06-.66-51.06h-3.29s-.99,44.01-.99,44.01c-2.16,0,.91-40.42-.33-44.01-.17-.51-1.52-1.6-1.97-.67l-.33,41.32-.99-40.65-2.3,35.95c-3.19-5.81.93-32.5-.99-35.95-.51-.92-2.19-.18-2.63.67v34.94c4.63,2.59,8.49,8.14,11.19,12.77,1.99,3.4,9.03,22.73,10.2,23.18.94.36,3.38-.25,4.61,0,1.05-26.07.4-52.15-3.29-77.94Z"/><path class="cls-6" d="M33.37,227.59c-2.04,1.45-.57,4.52.99,2.35l-.99-2.35Z"/><path class="cls-6" d="M56.41,144.95l-39.83,2.35,1.97,65.85c1.22,9.68,4.07,10.69,13.17,8.73-3.44-1.57-9.53,1.13-11.19-3.36l-2.63-70.55,37.52-1.34c1.92,12,3.45,24.11,3.95,36.28.34,8.22,1.25,27.69,0,34.94-.04.26-4.72,4.64.33,2.35,3.38-1.53-.68-66.93-3.29-75.25Z"/><path class="cls-6" d="M55.75,156.37c-.45,20.14.45,40.35.66,60.47,1.99-20.02,1.22-40.49-.66-60.47Z"/><path class="cls-5" d="M47.86,151c-2.49,3.39.21,8.88,0,12.77.63,0,.44-11.54,0-12.77Z"/><path class="cls-6" d="M32.06,224.91c-2.93.18-6.01-.41-8.89.34,0,.46,8.16.85,8.89-.34Z"/><path class="cls-8" d="M28.76,211.47c-1.85.51.29,4.49.66,5.38.88-1.73-.45-3.56-.66-5.38Z"/><path class="cls-14" d="M47.2,187.95c-.47,0-.57,5.23,0,6.05.51,0,.51-6.05,0-6.05Z"/><path class="cls-7" d="M47.2,185.26c-.32-.02-.44.59-.33,1.01.37,2.5,1.17-.96.33-1.01Z"/></g></g></svg>