<?xml version="1.0" encoding="UTF-8"?><svg id="Layer_2" xmlns="http://www.w3.org/2000/svg" viewBox="0 0 340.01 454.6"><defs><style>.cls-1{fill:#959a9d;}.cls-2{fill:#4f5555;}.cls-3{fill:#626a6d;}.cls-4{fill:#2f3337;}.cls-5{fill:#546763;}.cls-6{fill:#798186;}.cls-7{fill:#fff;}.cls-8{fill:#1d2022;}.cls-9{fill:#d2d3d5;}.cls-10{fill:#0e1013;}.cls-11{fill:#bababb;}.cls-12{fill:#e2e6e3;}</style></defs><g id="Layer_1-2"><g id="Generative_Object"><path class="cls-10" d="M119.11.16c28.59-1.29,48.89,5.58,74.58,16.14,5.71,2.35,11.15,6.86,17.45,7.41,5.87.51,13.3-1.25,12.87-8.5-.19-3.15-8.59-13.01.22-6.76,16.3,11.57,20.13,44.83,7.63,60.4-1.68,2.1-9.33,7.71-9.59,8.29-.95,2.02-.5,10.56-.87,13.52-1.65,13.21-2.93,24.61-3.05,37.94l17.01,28.78c-.31,2.26-19.99,8.58-20.5,9.59-.42.83,1.6,3.19,1.74,3.93,3.01,14.91-16.34,15.76-26.6,14.39,5.59,3.29,11.19,4.65,17.66,4.14.92-.07,4.31-1.89,4.8-1.74,1.81.56,5.92,12.75,6.32,15.05,1.67,9.57,1.56,44.85-3.93,52.34-2.62,3.58-7.94,2.99-11.99,2.83-10.54-.39-22.98-4.19-33.15-6.98l-7.63,30.31c25.53,37.85,39.73,83.01,42.74,128.66l.87.44,43.61-62.37c2.6-4.04,4.83,3.4,7.41-1.31,3.52-6.41,3.41-25.69,6.54-33.15.97-2.31,10.84-12.54,10.9-13.96l-33.15-49.72c.3-1.2,17.64-12.31,19.84-14.61,1.09-1.14-.3-2.31.87-2.62.85-.22,1.34.66,2.18.44,3.68-.98,7.44-2.97,10.47-3.93.87-.27,1.24.46,1.31.44.47-.16.74-1.78,2.62-2.18,2.5-.54,6.79.33,9.59,0,1.1-.13,4.87-2.23,5.23-2.18,1.46.19,1.02,2.33,2.18,2.62,1.49.37,1-1.21,2.62-1.31.61-.04,4.74,2.09,5.67,2.18,2.03.19,12.05-.89,12.87.65.43.81-.67,2.35.65,3.71s18.55,5.27,18.97,6.76c-3.94,13.75-10.08,27.17-13.08,41l17.01,51.46c-17.72,9.67-31.35,23.23-45.79,37.07l6.54,4.36-44.7,80.9-254.05-.22c-.82-16.41-2.69-31.45-1.74-47.97,2.77-48.37,21.78-107.35,42.74-150.9,1.22-2.54,9.86-20.38,10.9-20.93,1.61-.86,6.36,3.61,7.41,1.74l8.29-42.3c2.44-23.19-17.63-43.29-24.42-65.86C25.29,62.08,43.04,3.59,119.11.16Z"/><path class="cls-4" d="M54.99,236.1c32.46,13.97,63.93,30.54,96.38,44.49,2.75,1.18,9.04,1.9,11.12,3.71,1.28,1.11,8.66,14.1,10.03,16.57,18.92,34.1,29.24,75.16,31.18,114.05l47.54-66.73,47.76,25.51-43.83,80.03H126.96l-.65-102.71c-8.55-67.7-81.82-61.3-89.41,2.62v99.44H3.31c-2.69-24.4-2.31-48.06,1.31-72.4,7.4-49.71,26.92-100.49,50.37-144.58Z"/><path class="cls-4" d="M118.89,331.18l-.44,122.55c-26.63.95-53.61-.17-80.25-.65v-98.13c3.88-47.69,58.61-75.2,80.68-23.77Z"/><path class="cls-8" d="M118.45,453.73l.44-122.55c3.45,8.04,4.77,14.9,6.11,22.46l-.44,99.87c-.31.44-5.14.18-6.11.22Z"/><path class="cls-6" d="M152.69,279.28c.75-.14,1.32.36,1.96.65-.19.53-2.1.04-1.96-.65Z"/><path class="cls-12" d="M297.48,263.58c7.16-.75,12.28,6.1,11.12,12.87-1.47,4.74-13.25,38.11-12.65,40.12.07.24,2.06,1.55,2.4,1.53,1.01-.07,13.77-11.13,15.92-12.43l8.07-23.77,16.35,49.94c-18.17,8.87-31.15,24.13-46.45,36.85-3.71-3.13-36-17.79-35.98-19.84,0-.17,2.05-2.13,2.18-2.62,2.45-8.92,2.73-22.76,5.67-30.97,2.14-5.97,13.84-16.72,17.45-23.11,4.39-7.79,6.06-27.54,15.92-28.57Z"/><path class="cls-12" d="M301.84,236.1l24.64,8.5c-3.17,5.37-14.75,49.03-17.23,49.94-.69.25-3.31-1.16-4.36-.87-1.7-1.07,4.36-14.22,5.02-16.79.38-1.48-.43-4.84,0-6.11.13-.39,4.07-2.84,4.8-5.23,3.01-9.94-9.88-15.89-15.26-7.85-.85,1.28-1.09,4.3-1.96,5.02-.27.22-4.98,1.65-5.89,2.4l10.25-29Z"/><path class="cls-12" d="M255.18,248.31c1.09.09,10.21,16.29,11.56,18.54,1.03,1.71,3.41,3.47,4.36,5.23,2.42,4.48,2.53,9.73,3.71,14.61l-23.77-35.11c.01-.39,3.88-3.29,4.14-3.27Z"/><path class="cls-12" d="M297.92,227.81l36.85,12.43-21.59,62.58c-.81-.64-11.33-2.92-10.69-4.14l10.69,2.83,20.28-60.84c-3.99-1.34-33.42-12.31-35.11-11.56l-20.72,58.22.22,1.53,2.83,1.09-4.36-1.31,21.59-60.84Z"/><path class="cls-7" d="M300.54,233.48l28.57,9.38-18.54,54.73-6.76-2.83c2.41-.64,5.36,2.88,6.98.44l17.45-51.03c-.18-1.53-23.71-8.12-26.82-9.81l-19.84,51.68,18.97-52.55Z"/><path class="cls-12" d="M276.98,236.1l.87,39.25c-.76-12.55-4.09-24.69-7.2-36.85l6.32-2.4Z"/><polygon class="cls-7" points="302.28 300.65 313.84 304.36 297.92 316.35 302.28 300.65"/><path class="cls-12" d="M293.56,234.36l-7.85,23.99c1.09-4.3-.99-20.17.22-22.9.68-1.53,6.3.11,7.63-1.09Z"/><polygon class="cls-12" points="261.72 235.66 243.62 251.15 275.24 298.47 242.31 250.28 261.72 235.66"/><polygon class="cls-3" points="301.41 231.3 331.72 241.55 312.31 300.21 331.28 241.99 301.41 231.3"/><path class="cls-7" d="M253.87,246.57c.3-.08.92-.09,1.09.22l-5.23,5.23,23.77,36.85c-2.22-5.01-25-35.04-25.08-37.29-.03-.76,4.88-4.87,5.45-5.02Z"/><path class="cls-12" d="M263.9,233.92c3.99,16.99,10.2,33.58,12.21,51.03l-6.11-25.73-6.11-25.3Z"/><path class="cls-7" d="M263.46,241.77l4.8,17.88c-.61-2.88-7.86-13.46-7.63-15.48.13-1.18,2.11-1.65,2.83-2.4Z"/><polygon class="cls-7" points="284.4 232.61 295.08 232.83 285.05 233.7 283.53 263.58 284.4 232.61"/><path class="cls-3" d="M246.67,250.06l29,45.79-29.87-44.7c.15-.3.81-.97.87-1.09Z"/><path class="cls-7" d="M280.47,238.28c.34,6.19-.26,12.33-.22,18.54s1.78,12.08-.22,17.66c-1.06-12-1.07-24.24.44-36.2Z"/><path class="cls-2" d="M275.89,273.61h-.44c-3.05-11.98-5.98-24.03-9.16-35.98l1.09-2.4c1.84,12.74,5.26,25.75,8.5,38.38Z"/><path class="cls-11" d="M282.22,232.61c1.26,11.53-.17,23.31,0,34.89-1.74,0,.42-32.48,0-34.89Z"/><path class="cls-3" d="M285.49,270.12c4.22-12.71,8.61-25.4,13.3-37.94-3.35,10.13-6.14,20.73-9.81,30.75-.86,2.35-2.57,4.77-3.49,7.2Z"/><path class="cls-12" d="M291.59,228.25c.43.01.88-.02,1.31,0,1.08.05,2.18-.04,3.27,0-4.39,1.95-11.01.36-16.14.87l-.87,10.03v-10.9c4.14.08,8.3-.11,12.43,0Z"/><path class="cls-7" d="M259.1,245.7c2.78,2.9,4.23,7.36,6.11,10.9s4.58,6.87,5.67,10.9l-6.32-10.69-5.45-11.12Z"/><path class="cls-11" d="M269.13,237.85c3.1,9.95,4.73,20.38,6.98,30.53-3.18-9.93-5.23-20.26-6.98-30.53Z"/><path class="cls-9" d="M258.45,243.52h.44c-.18.19.46.62.44.65-.39.47-2.19.76-2.62,1.74l11.99,21.59c-1.51-2.92-12.96-19.91-12.87-21.59.05-.96,1.87-1.63,2.62-2.4Z"/><path class="cls-1" d="M313.4,264.01l-.44-.44c.7-5.8-4.65-9.27-10.03-7.2,5.71-3.53,11.7,1.21,10.47,7.63Z"/><path class="cls-2" d="M248.85,248.31c3.75-4.42,8.98-7.25,13.52-10.69-3.85,4.26-9.16,7.06-13.52,10.69Z"/><path class="cls-3" d="M285.49,270.12c-1.83,5.5-3.14,11.22-5.45,16.57.84-5.81,3.4-11.16,5.45-16.57Z"/><path class="cls-11" d="M276.55,230.43c.12.02.8.56.44.87-.88.76-9.78,1.93-11.56,2.83-.3-.75,10.54-3.8,11.12-3.71Z"/><path class="cls-11" d="M276.11,234.36c.43-.04.88.03,1.31,0,1.26.66-8.32,2.75-8.94,2.83,1.01-1.05,6.49-2.73,7.63-2.83Z"/><path class="cls-11" d="M311,260.52c2.13,1.41-.85,7.07-2.62,6.98l-.44-.87c2.99-1.32,2.86-3.24,3.05-6.11Z"/><path class="cls-2" d="M281.78,230.43c4.72.13,9.47-.28,14.17.22-4.65.23-9.57.64-14.17-.22Z"/><path class="cls-11" d="M275.46,273.61h.44c.29,2.39,2.38,6.02,1.09,8.29-.78-2.65-.85-5.64-1.53-8.29Z"/><path class="cls-12" d="M304.9,257.47c.33-.05.94-.11,1.09.22-2.15,1.33-3.55,2.96-4.14,5.45-1.73-1.59,1.88-5.51,3.05-5.67Z"/><path class="cls-12" d="M313.4,264.01c-.37,1.93-1.98,5.84-4.36,4.58,1.95-1.13,3.65-2.76,3.93-5.02l.44.44Z"/><polygon class="cls-1" points="301.84 257.04 299.66 262.7 299.88 259.43 301.84 257.04"/><path class="cls-2" d="M303.59,296.72l7.63,2.83c-2.32-.18-6.24-1.06-7.63-2.83Z"/><path class="cls-9" d="M312.31,229.56c2.53-.36,4.52.77,2.62,3.05.29-3.12-2.38-1.21-2.62-3.05Z"/><path class="cls-7" d="M275.68,290.18l4.14,1.96c-.68,1.25-5.83-1.11-4.14-1.96Z"/><path class="cls-12" d="M307.08,260.09c.74-.2,2.63,4.5.44,5.23l-.44-5.23Z"/><path class="cls-6" d="M258.89,243.52h-.44c1.34-1.37,2.29-2.68,4.14-3.49-.35,1.74-2.5,2.24-3.71,3.49Z"/><path class="cls-7" d="M306.21,261.83c1.19,0,.54,3.36-.44,2.62-.55-.42-.19-2.62.44-2.62Z"/><path class="cls-11" d="M304.9,260.09c-.07,1.06-.68,2.66-1.31,3.49-.7-1.32.38-2.68,1.31-3.49Z"/><path class="cls-11" d="M308.39,260.52c1.21-.2,1.99,2.94,1.31,3.05-.14-1.17-1-1.99-1.31-3.05Z"/><path class="cls-2" d="M248.85,248.31c-.59.7-1.01,1.8-2.18,1.74.79-1.46,1.6-1.26,2.18-1.74Z"/><path class="cls-7" d="M292.9,227.38c-.31.07-.6.28-.87.44-.83-1.2.5-1.76.87-.44Z"/><path class="cls-5" d="M306.21,258.34c.43.05,1.95-.16,1.96.22-.24.29-2.31.53-1.96-.22Z"/><path class="cls-8" d="M292.9,228.25c-.43-.02-.88.01-1.31,0-.07-.5.32-.37.44-.44.27-.16.56-.37.87-.44.06.23-.03.59,0,.87Z"/><path class="cls-12" d="M114.31,110.06c5.76-.66,11.26,3.76,15.05,7.63l-.44,93.77c3.67,19.05,21.96,32.07,38.82,39.25l-7.2,31.18-98.35-44.7,8.29-42.3c15.86-9.11,35.2-13.07,42.74-31.84.68-1.68,3.34-11.01,3.05-12.21-.11-.47-5.55-5.52-6.54-6.98-5.92-8.69-9.82-32.15,4.58-33.8Z"/><path class="cls-12" d="M154.43,120.96l39.69.44c3.77,7.61-.31,20.4,6.98,26.17,2.41,1.91,10.04,3.99,12.43,1.96,1.39-1.18,3.34-15.95,4.58-18.54l15.92,25.95-19.41,8.94c-5.6-3.88-10.21-8.21-17.45-8.72-12.05-.86-12.94,9.36-26.6,8.29-23.27-1.82-18.78-28.23-16.14-44.49Z"/><path class="cls-12" d="M160.97,61.65c8.87,7.28,20.2,14.09,31.4,17.01,8.57,2.24,20.15,4.23,27.91-.87l-2.83,32.49-62.58.65,6.11-49.28Z"/><path class="cls-2" d="M225.09,11.06c13.9,12.3,18.17,40.75,7.2,56.04-17.73,24.7-53.94,8.3-72.18-7.2l-7.2,51.25,44.05.87-43.83.65,6.11-54.08c17.12,13.03,45.68,29.61,65.86,14.39,19.25-14.53,14.39-45.71,0-61.93Z"/><path class="cls-3" d="M193.9,18.04C157.22,4.37,118.57-7.05,79.85,9.31c-10.59,4.48-17.74,11.76-25.51,19.84C69.96,4.36,105.55.12,132.63,1.03c22.5.75,41.13,8.06,61.28,17.01Z"/><path class="cls-2" d="M208.29,162.83c-4.16-2.65-12.86-5.22-17.66-3.93-1.1.3-6.58,6-9.59,6.98-6.78,2.19-17.47.85-23.11-3.49-11.54-8.86-6.33-29.99-5.45-42.52h41.87l-41.43.87c-.31,12.77-6.4,33.84,6.76,42.09,3.91,2.45,11.54,3.97,16.14,3.49,7.29-.75,11.97-7.77,17.01-8.29,5.58-.57,11.32,1.25,15.48,4.8Z"/><path class="cls-3" d="M193.9,18.04c7.62,2.84,14.74,7.97,23.33,6.54,7.93-1.32,9.47-9.56,5.02-15.48,6.27,5.29,2.73,15.28-5.45,16.35-9.52,1.25-15.11-3.96-22.9-7.41Z"/><path class="cls-6" d="M175.37,251.37l24.42,4.8,11.56-.22c-11.26,2.83-24.99-1.49-35.98-4.58Z"/><path class="cls-2" d="M208.29,162.83c12.67,8.08,8.52,20.74-5.89,21.81,13.92-3.17,17.24-12.13,5.89-21.81Z"/><path class="cls-6" d="M216.8,200.77c2.55,6.85,1.39,14.68,1.31,21.81-1-7.25.09-14.55-1.31-21.81Z"/><path class="cls-4" d="M191.29,187.69c4.08,2.07,9.53,2.44,13.96,3.27-5.39.77-9.47-.83-13.96-3.27Z"/><path class="cls-3" d="M186.92,183.77s.08-.73-.87,0c-.03-.05-.81-.23-.44-1.09l11.78,1.74c-3.55.66-6.98-.5-10.47-.65Z"/><path class="cls-4" d="M186.92,183.77c.62.78,2.34,2.58,3.05,3.05-1.42-.97-2.94-1.13-3.93-3.05.95-.73.83,0,.87,0Z"/><path class="cls-4" d="M191.29,187.69c-.9-.46-.82-.55-1.31-.87.23.16,1.24.83,1.31.87Z"/><path class="cls-2" d="M198.48,111.8c.84-.29,17.03-.26,17.88,0,.74.23,1.74,1.73,1.96,2.4,1.23,3.69-3.9,33.57-6.32,34.67-4.99,2.28-12.19-2.63-13.74-7.63-.53-1.73-2.83-22.33-2.62-23.99.12-.9,2.09-5.19,2.83-5.45Z"/><path class="cls-10" d="M198.92,112.68c.8-.28,16.2-.27,17.01,0,.32.11,1.44,1.64,1.53,1.96.93,3.51-3.46,31.88-5.89,33.36-4.31,2.62-11.02-2.53-12.43-6.76-.64-1.92-2.93-22.71-2.62-24.42.11-.61,1.92-3.97,2.4-4.14Z"/><path class="cls-2" d="M202.84,119.22l11.99.65c-.1,3.18-3.65,26.66-5.02,27.26-1.09.48-3.68-.3-4.8-.87-6.65-3.42-4.8-21.08-2.18-27.04Z"/><path class="cls-10" d="M203.71,119.65l10.25.65-3.49,23.55c-2.34,6.98-8.51-1-9.16-5.67-.36-2.64.18-17.76,2.4-18.54Z"/><path class="cls-12" d="M204.15,120.96c.63-.28,8.55-.19,8.94.65-.37,2.85-3.12,23.16-4.58,23.77-7.61,3.17-6.51-23.48-4.36-24.42Z"/></g></g></svg>